# xmcd CD database file
#
# Track frame offsets:
#	150
#	15064
#	38532
#	63711
#	82009
#	104079
#	121261
#	143200
#	162555
#	177309
#	193563
#
# Disc length: 3308 seconds
#
# Revision: 0
# Processed by: cddbd v1.5.1PL0 Copyright (c) Steve Scherf et al.
# Submitted via: CDex 1.51
#
DISCID=910cea0b
DTITLE=Alony - Unravelling
DYEAR=2005
DGENRE=Jazz
TTITLE0=Remedy
TTITLE1=White on White
TTITLE2=Free Fall
TTITLE3=Stray Thoughts
TTITLE4=Wild is the Wind
TTITLE5=She Can Still Recall
TTITLE6=Reminiscence
TTITLE7=Echoing
TTITLE8=Cloudy
TTITLE9=I'm All Smiles
TTITLE10=Secrets
EXTD=YEAR: 2005
EXTT0=
EXTT1=
EXTT2=
EXTT3=
EXTT4=
EXTT5=
EXTT6=
EXTT7=
EXTT8=
EXTT9=
EXTT10=
PLAYORDER=
